<svg id="illustration-2" xmlns="http://www.w3.org/2000/svg" xmlns:xlink="http://www.w3.org/1999/xlink" width="464.662" height="334.424" viewBox="0 0 464.662 334.424">
  <defs>
    <linearGradient id="linear-gradient" x1="0.192" y1="0.374" x2="1.201" y2="1.159" gradientUnits="objectBoundingBox">
      <stop offset="0" stop-color="#fdb714"/>
      <stop offset="1" stop-color="#ee2e24"/>
    </linearGradient>
  </defs>
  <g id="Group_24555" data-name="Group 24555" transform="translate(0 0)">
    <g id="Group_24537" data-name="Group 24537" transform="translate(0 11.977)">
      <path id="Path_12857" data-name="Path 12857" d="M577.571,410.317c-29.312,0-425.578-.851-425.578-.91-.158-.376-50.3-61.828,12.836-126.089,31.29-31.844-28.719-73.082,0-108.486,49.209-60.661,97.9-26.5,138.471-43.553,7.16-3.006,14.359-7.852,21.559-15.289a80.531,80.531,0,0,1,13.252-11c.732-.494,1.464-.969,2.215-1.424a90.693,90.693,0,0,1,8.841-4.806c2.037-.969,4.114-1.859,6.25-2.67h0a101.843,101.843,0,0,1,10.344-3.362A116.27,116.27,0,0,1,381.188,89.7q3.442-.445,6.942-.712c45.333-3.4,96.322,15.764,122.648,43.77,5.3,5.637,29.391,34.83,10.4,74.942-11.986,25.337,38.252,49.526,56.112,78.442C622.667,359.664,577.987,409.368,577.571,410.317Z" transform="translate(-132.963 -88.601)" fill="url(#linear-gradient)"/>
      <path id="Path_12858" data-name="Path 12858" d="M597.894,753.2H139.345a.574.574,0,0,1-.574-.574v-.336a.574.574,0,0,1,.574-.574h458.53a.574.574,0,0,1,.574.574v.336A.545.545,0,0,1,597.894,753.2Z" transform="translate(-135.96 -430.754)" fill="#233862"/>
    </g>
    <g id="Group_24554" data-name="Group 24554" transform="translate(108.588)">
      <g id="Group_24539" data-name="Group 24539" transform="translate(162.013 85.4)" opacity="0.8">
        <path id="Path_12859" data-name="Path 12859" d="M803.812,317.62a56.43,56.43,0,0,1-4.43,9.434,57.635,57.635,0,0,1-107.22-25.218,56.623,56.623,0,0,1,.079-8.782,57.862,57.862,0,0,1,8.683-25.89.413.413,0,0,1,.079-.119,57.841,57.841,0,0,1,32.853-24.526c1.4-.4,2.828-.752,4.272-1.048a57.454,57.454,0,0,1,31.231,2.294c1.385.494,2.729,1.048,4.035,1.642a54.756,54.756,0,0,1,5.36,2.769,57.187,57.187,0,0,1,17.979,16.515h0A57.386,57.386,0,0,1,803.714,278a59.708,59.708,0,0,1,2.235,7.6c.356,1.6.633,3.244.85,4.885a57.751,57.751,0,0,1-2.987,27.136Z" transform="translate(-692.029 -240.294)" fill="#fef0e8"/>
        <g id="Group_24538" data-name="Group 24538" transform="translate(8.915 1.178)">
          <path id="Path_12860" data-name="Path 12860" d="M749.589,268.261c-3.4,2.631-2.492,9.692-8.386,5.716s-9.593-6.131-11.254-2.67c-1.681,3.481,3.56,5.38,2.176,9.158s-4.173,4.173-7.12,1.068-3.026-6.092-7.813-5.993c-4.767.1-6.824-1.859-6.586-5.459a4.847,4.847,0,0,0-.158-1.661.41.41,0,0,1,.079-.119,57.841,57.841,0,0,1,32.852-24.526c1.4-.4,2.828-.752,4.272-1.048a7.6,7.6,0,0,1,4.391,4.806c2.077,6.052,5.459,4.628,2.591,9.711s-1.681,6.329,1.444,7.259,6.725,2.235,6.23,4.707C761.792,271.683,752.991,265.631,749.589,268.261Z" transform="translate(-710.447 -242.727)" fill="#f99850"/>
          <path id="Path_12861" data-name="Path 12861" d="M879.659,366.219a56.434,56.434,0,0,1-4.43,9.434,57.291,57.291,0,0,1-16.1,17.662,6.675,6.675,0,0,1-4.292-1.681c-5.775-5.162,1.879-10.641,5.894-13.291,4.035-2.67-3.441-3.54-7.219-8.742s5.063-12.223-.613-12.6-12.579-.752-13.726-6.824,4.806-4.826,3.758-9.949,3.9-6.072,9.177-4.608,5.934-2.433,12.48-.672,3.461,9.83,10.681,11.828c7.219,2.017,6.309,3.521,6.309,3.521a3.322,3.322,0,0,1,1.345.85A56.1,56.1,0,0,1,879.659,366.219Z" transform="translate(-776.79 -290.071)" fill="#f99850"/>
          <path id="Path_12862" data-name="Path 12862" d="M897.72,315c-6.863.712-6.408-7.852-12.243-7.358-5.874.514-3.362-3.679-6.27-7.991s-12.737-1.978-10.74-6.349,7.476-.949,10.048-4.094,8.01-.138,8.01-.138a4.4,4.4,0,0,1,1.127.138h0a57.373,57.373,0,0,1,6.982,13.311,59.668,59.668,0,0,1,2.235,7.6C897.206,311.72,897.5,313.362,897.72,315Z" transform="translate(-791.844 -265.972)" fill="#f99850"/>
          <path id="Path_12863" data-name="Path 12863" d="M825.022,264.235s4.668-3.3.277-6.369-4.925-1.325-8.544-3.105c-3.639-1.78-6.191.613-4.51,4.846s1.741,11.195,5.5,8.861C821.482,266.114,821.877,263.464,825.022,264.235Z" transform="translate(-762.7 -248.63)" fill="#f99850"/>
        </g>
      </g>
      <g id="Group_24541" data-name="Group 24541" transform="translate(18.276 145.063)">
        <path id="Path_12864" data-name="Path 12864" d="M605.344,493.937l-9.85,117.05s-1.029,7.1,4.252,7.1c8.683.02,43.2,0,43.2,0s-6.527-1.483-6.448-4.806c.1-3.916,11.511-120.472,11.511-120.472Z" transform="translate(-498.44 -430.249)" fill="#181919"/>
        <path id="Path_12865" data-name="Path 12865" d="M649.223,613.776c-1.7,0-35.127.059-43.572-.04-3.679-.04-4.332-3.283-4.351-5.36a9.366,9.366,0,0,1,.119-1.741l.257-3.046.653-7.753.574-6.843.732-8.8.633-7.437,7-83.169,42.643-1.108s-4.806,48.774-8.208,84.277c-.376,3.956-.732,7.753-1.068,11.294-.1,1.127-.218,2.235-.317,3.3-.316,3.362-.613,6.448-.85,9.177-.138,1.444-.257,2.769-.356,4-.435,4.786-.692,7.852-.692,8.426a4.851,4.851,0,0,0,.079.949C643.171,613.618,648.57,613.776,649.223,613.776Z" transform="translate(-501.476 -428.015)" fill="#424242"/>
        <path id="Path_12866" data-name="Path 12866" d="M401.93,363.559l23.972,96.3,3.283,13.192,11.175,44.878h207.5L606.679,363.559Z" transform="translate(-398.607 -363.559)" fill="#181919"/>
        <path id="Path_12867" data-name="Path 12867" d="M398.388,363.559l-3.323,1.108,37.342,156.608,4.411-3.343Z" transform="translate(-395.065 -363.559)" fill="#2d2d2d"/>
        <path id="Path_12868" data-name="Path 12868" d="M472.214,685.839H678.427l5.7-3.343h-207.5Z" transform="translate(-434.872 -528.123)" fill="#6b6b6b"/>
        <rect id="Rectangle_7360" data-name="Rectangle 7360" width="44.641" height="2.116" transform="translate(154.399 187.899) rotate(180)" fill="#757575"/>
        <path id="Path_12869" data-name="Path 12869" d="M645.613,689.4l-.237,1.622-41.99,8.485.574-6.863.277-3.244Z" transform="translate(-502.553 -531.687)" fill="#757575"/>
        <path id="Path_12870" data-name="Path 12870" d="M649.225,733.2c-1.7,0-35.127.059-43.572-.04-3.679-.04-4.332-3.283-4.351-5.36l41.792-7.872c-.435,4.786-.692,7.852-.692,8.426a4.856,4.856,0,0,0,.079.949C643.173,733.04,648.572,733.2,649.225,733.2Z" transform="translate(-501.478 -547.437)" fill="#2d2d2d"/>
        <path id="Path_12871" data-name="Path 12871" d="M401.93,363.559H606.679l33.228,124.052H432.824Z" transform="translate(-398.607 -363.559)" fill="#181919"/>
        <path id="Path_12872" data-name="Path 12872" d="M639.3,489.336H447.585l-6.863-27.295-2.65-10.562L437,447.168l-7.041-28.046-.376-1.464-3.718-14.814-1.661-6.646-1.424-5.657-3.323-13.252H608.406l3.659,13.252,1.562,5.657,1.82,6.646,12.045,43.691h0l1.029,3.7.475,1.721,8.307,30.182Z" transform="translate(-407.652 -370.644)" fill="#fef0e8"/>
        <path id="Path_12873" data-name="Path 12873" d="M612.065,390.541H422.783l-3.323-13.252H608.406Z" transform="translate(-407.652 -370.644)" fill="#f77d48"/>
        <g id="Group_24540" data-name="Group 24540" transform="translate(19.567 10.977)">
          <path id="Path_12874" data-name="Path 12874" d="M435.544,387.9a1.257,1.257,0,0,1,1.246-1.661,2.3,2.3,0,0,1,2.077,1.661,1.257,1.257,0,0,1-1.246,1.661A2.3,2.3,0,0,1,435.544,387.9Z" transform="translate(-435.49 -386.238)" fill="#e9f3fe"/>
          <path id="Path_12875" data-name="Path 12875" d="M446.945,387.9a1.257,1.257,0,0,1,1.246-1.661,2.3,2.3,0,0,1,2.077,1.661,1.257,1.257,0,0,1-1.246,1.661A2.257,2.257,0,0,1,446.945,387.9Z" transform="translate(-441.373 -386.238)" fill="#e9f3fe"/>
          <path id="Path_12876" data-name="Path 12876" d="M459.2,387.9a1.257,1.257,0,0,1,1.246-1.661,2.3,2.3,0,0,1,2.077,1.661,1.257,1.257,0,0,1-1.246,1.661A2.258,2.258,0,0,1,459.2,387.9Z" transform="translate(-447.698 -386.238)" fill="#e9f3fe"/>
        </g>
      </g>
      <path id="Path_12877" data-name="Path 12877" d="M720.238,138.449c7.753-9.1,19.7-27.374,27.75-36.729a2.971,2.971,0,0,0-2.255-4.905H731.1L744.9,65.584a1.222,1.222,0,0,0-2.1-1.226L709.4,109.038a1.854,1.854,0,0,0,1.7,2.947l16.574-2.037-9.85,27.077A1.422,1.422,0,0,0,720.238,138.449Z" transform="translate(-538.788 -63.857)" fill="#f77d48"/>
      <path id="Path_12878" data-name="Path 12878" d="M570.346,270.1c1.741-8.94,2.848-25.554,4.688-34.771a2.268,2.268,0,0,0-3.343-2.413L561.96,238.4l-2.512-25.91a.937.937,0,0,0-1.859-.04l-5.459,42.168a1.4,1.4,0,0,0,2.235,1.305l10.245-7.556,3.58,21.677A1.1,1.1,0,0,0,570.346,270.1Z" transform="translate(-457.825 -140.112)" fill="#fff"/>
      <g id="Group_24545" data-name="Group 24545" transform="translate(67.285 82.853)">
        <path id="Path_12879" data-name="Path 12879" d="M694.079,425.312,527.5,439.355a16.664,16.664,0,0,1-16.614-23.418l70.57-157.953a16.673,16.673,0,0,1,29.094-2.453l96.006,143.91A16.677,16.677,0,0,1,694.079,425.312Z" transform="translate(-503.075 -241.78)" fill="#e6efff"/>
        <g id="Group_24542" data-name="Group 24542">
          <path id="Path_12880" data-name="Path 12880" d="M687.859,424.875,521.283,438.918a22.995,22.995,0,0,1-22.924-32.3l70.57-157.973a23.006,23.006,0,0,1,40.131-3.382l96.006,143.91a23.023,23.023,0,0,1-17.207,35.7ZM589.044,247.717a10.2,10.2,0,0,0-8.584,6.092L509.89,411.761A10.356,10.356,0,0,0,520.214,426.3l166.576-14.043a10.35,10.35,0,0,0,7.753-16.06l-96.006-143.91A10.256,10.256,0,0,0,589.044,247.717Z" transform="translate(-496.32 -235.033)" fill="#ef5216"/>
        </g>
        <g id="Group_24544" data-name="Group 24544" transform="translate(80.284 46.96)">
          <g id="Group_24543" data-name="Group 24543">
            <path id="Path_12881" data-name="Path 12881" d="M670.732,444.456a15.318,15.318,0,0,1,.653-6.052,13.969,13.969,0,0,1,2.848-5,15.022,15.022,0,0,1,4.786-3.54,18.532,18.532,0,0,1,6.547-1.681,19.364,19.364,0,0,1,6.784.554,14.869,14.869,0,0,1,5.36,2.69,13.965,13.965,0,0,1,3.639,4.45,15.434,15.434,0,0,1,1.642,5.854,14.9,14.9,0,0,1-.653,5.993,14.142,14.142,0,0,1-2.848,4.964,15.188,15.188,0,0,1-4.846,3.56,18.978,18.978,0,0,1-6.606,1.681,18.646,18.646,0,0,1-6.745-.554,15.011,15.011,0,0,1-5.32-2.69,14.033,14.033,0,0,1-3.639-4.411A15.623,15.623,0,0,1,670.732,444.456Zm25.752-30.123-23.992,2.017-10.3-81.706,30.8-2.591Z" transform="translate(-662.187 -332.054)" fill="#ef5216"/>
          </g>
        </g>
      </g>
      <g id="Group_24549" data-name="Group 24549" transform="translate(0 181.553)">
        <path id="Path_12882" data-name="Path 12882" d="M466.126,508.529a19.026,19.026,0,0,1,.87-1.741c.336-.554,1.78-2.2,2.037-1.82.237.376,1.226,2.848.712,3.54s.04,1.9-2.571,2.631Z" transform="translate(-413.455 -472.985)" fill="#ffb27d"/>
        <path id="Path_12883" data-name="Path 12883" d="M406.425,497.059s13.311,11.116,18.493,10.087c4.055-.811,10.483-2.848,10.483-2.848a4.038,4.038,0,0,1,1.207,3.54s-8.169,7.694-14,7.733c-9.1.079-13.39-4.509-13.39-4.509Z" transform="translate(-382.651 -468.932)" fill="#ed7d2b"/>
        <path id="Path_12884" data-name="Path 12884" d="M358.206,737.009s.4,6.23,1.582,6.329c.158.02,6.112.02,6.112.02l7.6-.04a2.469,2.469,0,0,0-2.275-2.215c-2.215-.4-5.934-1.958-7.279-4.885C362.538,733.112,358.206,737.009,358.206,737.009Z" transform="translate(-357.771 -591.713)" fill="#113c68"/>
        <path id="Path_12885" data-name="Path 12885" d="M357.307,658.013a15.914,15.914,0,0,0,4.114.771,14.864,14.864,0,0,0,3.837-.554,104.8,104.8,0,0,1,2.828-13.469c1.246-4.866,3.046-11.116,5.6-18.869,7.061-21.46,9.2-34,9.395-35.186a.346.346,0,0,0,.02-.1l-.02-.02L361.4,581.074s2.67,29.569-.732,40.922a49.687,49.687,0,0,0-1.246,5.439C357.268,639.757,357.307,658.013,357.307,658.013Z" transform="translate(-357.307 -512.282)" fill="#2a4e96"/>
        <path id="Path_12886" data-name="Path 12886" d="M371.647,644.761c1.246-4.866,3.046-11.116,5.6-18.869,7.061-21.46,9.2-34,9.395-35.186v-.1l-21.677-9.533s2.67,29.569-.732,40.922C363.736,623.578,371.647,644.761,371.647,644.761Z" transform="translate(-360.868 -512.282)" fill="#233862"/>
        <path id="Path_12887" data-name="Path 12887" d="M393.185,737.009s.4,6.23,1.582,6.329c.158.02,6.112.02,6.112.02l7.6-.04A2.469,2.469,0,0,0,406.2,741.1c-2.215-.4-5.934-1.958-7.279-4.885C397.517,733.112,393.185,737.009,393.185,737.009Z" transform="translate(-375.819 -591.713)" fill="#15447c"/>
        <path id="Path_12888" data-name="Path 12888" d="M394.018,582.5a309.984,309.984,0,0,1-3.026,42.682c-3.323,23.537-2.2,33.505-2.2,33.505a23.04,23.04,0,0,1-3.2.811,14.3,14.3,0,0,1-4.747-.554s-4.747-23.537-3.382-35.3-6.507-40.408-6.507-40.408Z" transform="translate(-364.349 -513.02)" fill="#2a4e96"/>
        <path id="Path_12889" data-name="Path 12889" d="M386.851,479.768l4.233,2.769,3.857-1.088c.712-1.009.89-2.947.91-4.628a25.454,25.454,0,0,0-.158-3.085l-5.716-2.512-2.136-.93c0,.04.158,1.741.2,2A14.611,14.611,0,0,1,386.851,479.768Z" transform="translate(-372.551 -455.122)" fill="#ffb27d"/>
        <path id="Path_12890" data-name="Path 12890" d="M390.332,538.354c-5.261,5.083-25.2,4.233-26.424-1.365s1.345-47.706,10.344-50.337c1.859-.554,11.847,2.67,11.847,2.67a63.512,63.512,0,0,1,2.591,9.316c.2,1.009.771,11.768,1.226,21.836.2,4.707.376,9.256.455,12.6A42.281,42.281,0,0,1,390.332,538.354Z" transform="translate(-360.565 -463.53)" fill="#f99746"/>
        <path id="Path_12891" data-name="Path 12891" d="M389.989,473.362c1.167,1.958,5.222,3.679,7.377,4.45a25.461,25.461,0,0,0-.158-3.085l-5.716-2.512C390.246,472.215,389.475,472.491,389.989,473.362Z" transform="translate(-374.087 -456.113)" fill="#fca56b"/>
        <path id="Path_12892" data-name="Path 12892" d="M395.853,460.573s-9.2,2.868-10.9-2.888-4.035-9.256,1.78-11.333c5.8-2.077,7.6-.218,8.623,1.563C396.387,449.714,398.207,459.683,395.853,460.573Z" transform="translate(-370.576 -442.296)" fill="#ffb27d"/>
        <path id="Path_12893" data-name="Path 12893" d="M390.732,444.014s-.593,6.7-1.978,6.408-2.907-.91-2.71,1.108-1.345,5.479-3.343,5.479c-4.292-.02-8.94-11.017-7.773-13.094C378.331,437.9,395.618,436.676,390.732,444.014Z" transform="translate(-366.306 -438.949)" fill="#163560"/>
        <path id="Path_12894" data-name="Path 12894" d="M394.939,483.955c-.119-.059-6.843-3.066-7.635-2.809s-1.76,2.67-1.76,2.67l11.847,2.67A5.937,5.937,0,0,0,394.939,483.955Z" transform="translate(-371.877 -460.714)" fill="#ed7d2b"/>
        <g id="Group_24547" data-name="Group 24547" transform="translate(23.712 4.267)">
          <path id="Path_12895" data-name="Path 12895" d="M447.579,550.52l-37.718,35.523c-.732.692-1.681.91-2.077.494l-1.266-1.345c-.4-.415-.119-1.345.613-2.037l37.718-35.523c.732-.692,1.681-.91,2.077-.495l1.266,1.345C448.588,548.9,448.311,549.808,447.579,550.52Z" transform="translate(-406.318 -498.93)" fill="#1f4d84"/>
          <path id="Path_12896" data-name="Path 12896" d="M426.375,592.42,409.82,608.006c-.732.692-1.681.91-2.077.495l-1.266-1.345c-.4-.415-.119-1.345.613-2.037l16.555-15.586Z" transform="translate(-406.297 -520.914)" fill="#739af0"/>
          <path id="Path_12897" data-name="Path 12897" d="M472.236,485.945a29.565,29.565,0,1,0,49.012-29.688c-.158-.158-.316-.3-.455-.455a29.573,29.573,0,0,0-48.557,30.143Zm8.445-27.295a27.208,27.208,0,0,1,24.506-8.169,26.907,26.907,0,0,1,13.984,7,27.229,27.229,0,1,1-38.489,1.167Z" transform="translate(-439.658 -447.765)" fill="#1f4d84"/>
          <g id="Group_24546" data-name="Group 24546" transform="translate(33.641 2.317)" opacity="0.5">
            <path id="Path_12898" data-name="Path 12898" d="M522.859,498.442a27.237,27.237,0,1,1-1.167-38.489A27.105,27.105,0,0,1,522.859,498.442Z" transform="translate(-475.8 -452.552)" fill="#b3cff9"/>
          </g>
        </g>
        <path id="Path_12899" data-name="Path 12899" d="M398.485,545.73c-20.787-14.814-19.067-34.573-19.067-34.573,7.6,4.292,15.131,13.766,18.592,21.974C398.228,537.839,398.406,542.407,398.485,545.73Z" transform="translate(-368.698 -476.207)" fill="#ed7d2b"/>
        <g id="Group_24548" data-name="Group 24548" transform="translate(10.307 25.773)">
          <path id="Path_12900" data-name="Path 12900" d="M458.566,566.9a5.571,5.571,0,0,0,2.65-1.642s.633.04-.1,1.385l-.3.593a.124.124,0,0,0,.1.178,12.882,12.882,0,0,1,3.323.079c.218.04.3.593.277.811a2.081,2.081,0,0,1-.435,1.424c-.257.356-.989.712-2.631,1.385a7.83,7.83,0,0,1-4.055-.514l-1.325-.613.415-2.472.336.079C457.359,567.693,458.012,567.04,458.566,566.9Z" transform="translate(-418.575 -529.896)" fill="#ffb27d"/>
          <path id="Path_12901" data-name="Path 12901" d="M385.482,492.2s-18.671,3.56,5.5,30.6c3.857,4.331,24.743,9.949,24.743,9.949s2.116-1.8,1.048-3.264c0,0-14.379-10.443-17.544-12.1-1.424-.752-5.518-16.674-7.852-20.511A10.52,10.52,0,0,0,385.482,492.2Z" transform="translate(-378.601 -492.197)" fill="#f99746"/>
        </g>
        <path id="Path_12902" data-name="Path 12902" d="M467.188,508.231a9.465,9.465,0,0,0,.732-1.78,9.9,9.9,0,0,1,1.206-2.729c.119-.119.554.04.593.574a3.36,3.36,0,0,1-.3,1.187,13.355,13.355,0,0,0-.4,2.354C468.731,508.765,467.188,508.231,467.188,508.231Z" transform="translate(-414.003 -472.351)" fill="#ffb27d"/>
      </g>
      <g id="Group_24551" data-name="Group 24551" transform="translate(31.456 82.563)">
        <g id="Group_24550" data-name="Group 24550">
          <path id="Path_12903" data-name="Path 12903" d="M482.2,406.54a1.126,1.126,0,0,0-.2,1.207h0a7.342,7.342,0,0,0,2.373,2.591c.138.119.277.218.376.316l.079.079.059.059c1.048.949.653,1.187,2.512,3.125,2.136,2.215,3.6,2.255,4.015,2.057.356-.178-.356-1.345-1.167-2.67a1.738,1.738,0,0,1-.119-.2c-.1-.178-.218-.356-.316-.534-.93-1.582-.692-2.334-.475-4.707.178-1.918,2.987-10.74,2.987-10.74l-4.074-.712s-1.226,7.021-2.591,8.109c-.732.574-1.543.574-2.235,1.009-.04.04-.1.059-.138.1A7.578,7.578,0,0,0,482.2,406.54Z" transform="translate(-453.059 -318.011)" fill="#ffb27d"/>
          <path id="Path_12904" data-name="Path 12904" d="M482.2,416.365a1.126,1.126,0,0,0-.2,1.207h0a8.441,8.441,0,0,0,2.373,2.591c.138.119.257.218.376.316l.079.079.059.059c1.048.949.653,1.187,2.512,3.125,2.136,2.215,3.6,2.255,4.015,2.057.356-.178-.356-1.345-1.167-2.67a9.093,9.093,0,0,1-3.8-2.809c-1.226-1.582-2.077-3.58-2.907-4.826-.1-.02-.138-.02-.237-.04A6.76,6.76,0,0,0,482.2,416.365Z" transform="translate(-453.059 -327.837)" fill="#233862"/>
          <path id="Path_12905" data-name="Path 12905" d="M547.091,402.7c.257,1.266,2.057,1.048,4.055.554s1.523.1,4.391-.218c2.848-.316,3.718-1.384,3.817-1.8.079-.376-1.325-.514-2.848-.692l-.574-.059c-1.7-.218-2.967-1.325-4.51-2.215-1.464-.85-3.659-4.351-3.659-4.351l-3.916.316s2.057,3.125,2.848,4.49a4.659,4.659,0,0,1,.376,2.67A4.139,4.139,0,0,0,547.091,402.7Z" transform="translate(-485.013 -316.725)" fill="#ffb27d"/>
          <path id="Path_12906" data-name="Path 12906" d="M554.548,410.36c2-.494,1.523.1,4.391-.218,2.848-.316,3.718-1.384,3.817-1.8.079-.376-1.325-.514-2.848-.692l-.02.02a8.147,8.147,0,0,1-4.094,1.266c-1.938.04-4-.514-5.32-.494a4.4,4.4,0,0,0,.04,1.345C550.751,411.053,552.55,410.855,554.548,410.36Z" transform="translate(-488.416 -323.809)" fill="#233862"/>
          <path id="Path_12907" data-name="Path 12907" d="M505.218,353.63l-3.659,9.85-4.786,12.856a7.81,7.81,0,0,1-2.532-.237,11.285,11.285,0,0,1-2.453-1.187s1.325-13.806,3.817-21.737a13.962,13.962,0,0,1,2.136-4.608C501.559,344.018,505.218,353.63,505.218,353.63Z" transform="translate(-458.152 -292.693)" fill="#233862"/>
          <path id="Path_12908" data-name="Path 12908" d="M474.074,325.859c-2.077-.672-7.516-.02-13.43,1.048a4.031,4.031,0,0,1-4.134-1.859h0l-14.854-1.167s-4.905,10.859-2.215,17.781a2.625,2.625,0,0,0,2.591,1.681h0s8.98.02,11.847.02c7.377,0,15.625-5.063,16.693-5.281,1.74-.356,2.433,3.145,4.193,6.8,1.741,3.659,16.4,16.238,16.4,16.238a13.407,13.407,0,0,0,3.184-.316,3.02,3.02,0,0,0,1.365-.87S479.493,327.619,474.074,325.859Z" transform="translate(-430.726 -280.586)" fill="#2a4e96"/>
          <path id="Path_12909" data-name="Path 12909" d="M446.61,235.3a5.274,5.274,0,0,0-2.828-.732,7.9,7.9,0,0,1-1.365-.079c-5.657-.831-9.078,7.4-9.276,9.889-.376,4.569-2.789,5.261-6.191,8.129-6.824,5.736-4.826,12.4-1.088,14.874,2.235,1.483,6.171,0,6.171,0,.059.04,10.779-5.993,16.08-8.9C456.025,257.336,449.795,237.2,446.61,235.3Z" transform="translate(-422.369 -234.433)" fill="#233862"/>
          <path id="Path_12910" data-name="Path 12910" d="M458.593,270.076c.02.02-2.611.91-4.351.138-1.642-.732-2.907-3.441-2.868-3.441.752-.04,1.582-.692,2.215-5l.316.119,5.38,1.938s-.4,1.721-.633,3.362C458.414,268.553,458.3,269.879,458.593,270.076Z" transform="translate(-437.298 -248.538)" fill="#ffb27d"/>
          <path id="Path_12911" data-name="Path 12911" d="M461.944,263.912s-.218.93-.534,2.67a6.057,6.057,0,0,1-4.846-4.608Z" transform="translate(-439.977 -248.643)" fill="#ed975d"/>
          <path id="Path_12912" data-name="Path 12912" d="M462.159,255.744s-7.358-.989-6.665-5.558.2-7.773,4.925-7.338,5.38,2.314,5.518,3.9S464.1,255.883,462.159,255.744Z" transform="translate(-439.401 -238.755)" fill="#ffb27d"/>
          <path id="Path_12913" data-name="Path 12913" d="M463.451,243.794s-4.707,4.055-7.912,4.391c-3.2.316-4.411-.712-4.411-.712a12.611,12.611,0,0,0,3.026-4.094,2.228,2.228,0,0,1,1.859-1.325C458.289,241.855,462.621,241.776,463.451,243.794Z" transform="translate(-437.173 -238.316)" fill="#233862"/>
          <path id="Path_12914" data-name="Path 12914" d="M470.5,244.076a11.538,11.538,0,0,1,2.077,2.65,8.978,8.978,0,0,1,.237,4.727s2.453-4.767,1.068-7.1C472.4,241.92,470.5,244.076,470.5,244.076Z" transform="translate(-447.167 -238.954)" fill="#233862"/>
          <path id="Path_12915" data-name="Path 12915" d="M458.031,286.036c-.237,14.893-.059,11.788-1.7,13.192a6.4,6.4,0,0,1-2.947.633c-4.569.3-12.6-.455-12.9-1.305-1.048-2.927-.316-3.837-1.187-8.307-.1-.475-.2-.989-.336-1.543-.732-3.066-1.444-4.114,1.147-9.039,2.354-4.47,4.806-8.09,5.024-7.971,6.211,3.7,6.725.593,6.725.593S458.13,278.777,458.031,286.036Z" transform="translate(-430.547 -253.659)" fill="#f99746"/>
          <path id="Path_12916" data-name="Path 12916" d="M501.559,369.7l-4.786,12.856a7.811,7.811,0,0,1-2.532-.237,11.283,11.283,0,0,1-2.453-1.187s1.325-13.806,3.817-21.737Z" transform="translate(-458.152 -298.909)" fill="#2a4e96"/>
          <path id="Path_12917" data-name="Path 12917" d="M466.371,272.966s6.408,1.088,7.14,3.837c.752,2.749,3.224,19.482,3.224,19.482s-1.8,1.76-3.3.257S468.7,280.9,468.7,280.9Z" transform="translate(-445.037 -254.315)" fill="#f99746"/>
          <path id="Path_12918" data-name="Path 12918" d="M454.465,313.021c-4.569.3-12.6-.455-12.9-1.305-1.048-2.927-.316-3.837-1.187-8.307l2.2-6.211s-.376,6.9,1.661,8.722,8.347,3.5,9.336,5.024A5.936,5.936,0,0,1,454.465,313.021Z" transform="translate(-431.628 -266.818)" fill="#ed7d2b"/>
          <path id="Path_12919" data-name="Path 12919" d="M458.689,323.142s4.51-1.009,5.241-.593a10.573,10.573,0,0,1,2.729,2.354c.218.514-1.622-.376-2.215-.554a5.7,5.7,0,0,0-1.919.415,6.225,6.225,0,0,1-3.422.336Z" transform="translate(-441.073 -279.847)" fill="#ffb27d"/>
          <path id="Path_12920" data-name="Path 12920" d="M436.9,271.74s-6.052.376-8.149,3.283c-2.947,4.114-8.8,21.638-5.459,23.972,3.778,2.631,17.168.692,17.168.692s.455-2.077-.178-3.085c-.613-1.009-10.7-2.65-11.175-3.105-.475-.475,5.815-9.078,5.815-10.463C434.946,281.629,436.9,271.74,436.9,271.74Z" transform="translate(-422.295 -253.683)" fill="#f99746"/>
          <path id="Path_12921" data-name="Path 12921" d="M469.926,325.23a8.943,8.943,0,0,0,1.246,1.365,1.137,1.137,0,0,0,.514.119l-.633-1.147Z" transform="translate(-446.872 -281.282)" fill="#ffb27d"/>
          <path id="Path_12922" data-name="Path 12922" d="M469.477,322.655l2.749,1.325a.48.48,0,0,1-.455.178,6.714,6.714,0,0,1-1.187-.336Z" transform="translate(-446.64 -279.954)" fill="#ffb27d"/>
        </g>
        <path id="Path_12923" data-name="Path 12923" d="M487.348,329.132l-28.659-.02v.633l28.4.02Z" transform="translate(-441.073 -283.285)" fill="#233862"/>
        <path id="Path_12924" data-name="Path 12924" d="M472.5,313.13l21.717.02,6.547-16.238H479.087Z" transform="translate(-448.2 -266.671)" fill="#233862"/>
        <path id="Path_12925" data-name="Path 12925" d="M503.813,312.569a.746.746,0,0,0-.732-1.028,1.458,1.458,0,0,0-1.325,1.028.746.746,0,0,0,.732,1.029A1.458,1.458,0,0,0,503.813,312.569Z" transform="translate(-463.274 -274.219)" fill="#fff"/>
      </g>
      <g id="Group_24553" data-name="Group 24553" transform="translate(193.436 189.904)">
        <path id="Path_12926" data-name="Path 12926" d="M795.284,456.575a6.219,6.219,0,0,0-4.945.257c-8.426.336-8.742,8.98-7.753,12.184,1.385,4.51-3.521,8.07,1.919,9.889,6.329,2.116,11.63-.4,11.254.692C815.774,481.18,801.949,458.77,795.284,456.575Z" transform="translate(-769.809 -456.202)" fill="#163560"/>
        <path id="Path_12927" data-name="Path 12927" d="M778.289,524.624a21.2,21.2,0,0,1-2.255,3.4c-1.74,2.2-10.938-3.006-10.146-3.4s5.4-13.687,6.507-15.348,4.846-2.532,4.846-2.532Z" transform="translate(-761.536 -482.281)" fill="#f99746"/>
        <path id="Path_12928" data-name="Path 12928" d="M845.783,727.716s2.532,2.314,2.037,3.956-2.789,2.729-3.085,4.747c-.317,2.017-1.543,3.105-2.65,3.105h-5.3s-.811-1.4,1.167-1.839,2.729-2.789,2.591-4.984a39.98,39.98,0,0,1,.178-5.1l4.193-.969Z" transform="translate(-798.057 -595.736)" fill="#1f447f"/>
        <path id="Path_12929" data-name="Path 12929" d="M795.864,730.919s.91,9.79-.2,10.344l-14.241-.02s0-1.642,2.294-2.017c2.294-.356,6.309-1.7,6.982-4.688S795.864,730.919,795.864,730.919Z" transform="translate(-769.578 -597.95)" fill="#1c3154"/>
        <path id="Path_12930" data-name="Path 12930" d="M806.437,517.2a55.362,55.362,0,0,1,0,6.586c-.138,2.373-2.551,5.558-2.888,6.349-.85,1.978-1.82,2.294-1.82,2.294l-7.476,1.839-2.631.653-8.287-2.472s-3.778-10.542-2.255-16.476a45.731,45.731,0,0,1,3.837-10.048s5.637-1.266,15.566-.554Z" transform="translate(-769.214 -481.458)" fill="#f99746"/>
        <path id="Path_12931" data-name="Path 12931" d="M820.144,536.933c-.139,2.373-3.263,5.479-3.6,6.27-.85,1.978-1.82,2.294-1.82,2.294l-7.476,1.839L805.9,543.46s10.918-2.868,9.158-12.975Z" transform="translate(-782.208 -494.531)" fill="#ed7d2b"/>
        <path id="Path_12932" data-name="Path 12932" d="M782.562,564.81s-4.114,12.777-4.371,17.128,7.852,61.789,8.169,63.806c.316,1.9,2.65,3.085,2.65,3.085a3.556,3.556,0,0,0,2.611.2,6.311,6.311,0,0,0,2.809-1.325s3.2-40.962,1.226-55.6a231.27,231.27,0,0,1-2-27.295Z" transform="translate(-767.906 -512.241)" fill="#233862"/>
        <path id="Path_12933" data-name="Path 12933" d="M806.051,564.034s6.27,8.406,6.843,14.082c.593,5.677.91,25.633,2.156,31.171s5.815,16.2,5.815,33.465a3.468,3.468,0,0,1-1.938,1.523,13.757,13.757,0,0,1-1.7.475,2.7,2.7,0,0,1-3.006-1.424c-3.086-6.211-12.935-26.286-13.43-30.439-.356-2.947-3.461-22.449-10.245-33.9-1.622-2.749.989-13.667.989-13.667Z" transform="translate(-774.009 -511.841)" fill="#2a4e96"/>
        <path id="Path_12934" data-name="Path 12934" d="M785.625,560.724a8.547,8.547,0,0,0,4.925,1.365c3.916.079,13.608-.989,13.608-.989a7.93,7.93,0,0,1,.415,2.472s-11.828,2.987-18.691.435A4.151,4.151,0,0,1,785.625,560.724Z" transform="translate(-771.622 -510.133)" fill="#233862"/>
        <g id="Group_24552" data-name="Group 24552" transform="translate(16.199 51.303)">
          <path id="Path_12935" data-name="Path 12935" d="M792.2,566.23a2.033,2.033,0,1,1,1.78-2.017A1.91,1.91,0,0,1,792.2,566.23Zm0-3.441a1.448,1.448,0,1,0,1.187,1.424A1.307,1.307,0,0,0,792.2,562.789Z" transform="translate(-790.416 -562.195)" fill="#fff"/>
        </g>
        <path id="Path_12936" data-name="Path 12936" d="M783.472,556.2l-17.781.158-8.742-20.57,17.781-.158Z" transform="translate(-756.949 -497.187)" fill="#b5453c"/>
        <path id="Path_12937" data-name="Path 12937" d="M797.261,555.448l-1.305-1.6a4.727,4.727,0,0,0-1.523-.93c-.633-.138-2-.91-2.116-.692-.138.218,1.048,1.78,1.048,1.78h.059c-1.345,1.009-4.727.119-5.142.534-.514.494.692,1.582,1.345,2.176s2.492,1.622,3.936,1.167c1.048-.336,2.71-.653,2.71-.653Z" transform="translate(-773.052 -505.728)" fill="#ffb27d"/>
        <path id="Path_12938" data-name="Path 12938" d="M759.567,542.564s1.127-1.266,1.82-.653c.712.613-.178,3.6-.87,3.3S759.191,542.94,759.567,542.564Z" transform="translate(-758.242 -500.34)" fill="#ffb27d"/>
        <path id="Path_12939" data-name="Path 12939" d="M811.939,505.559s5.083.554,8.742,7.2c2.888,5.241,7.813,14.893,5.953,17.6-.811,1.206-8.643,5.459-23.715,3.026a4.559,4.559,0,0,1,1.464-2.789s12.7-4.074,12.678-4.885c-.04-1.543-1.721-2.868-8.8-9.949C806.3,513.826,811.939,505.559,811.939,505.559Z" transform="translate(-780.669 -481.669)" fill="#f99746"/>
        <path id="Path_12940" data-name="Path 12940" d="M805.258,497.845c.178-.237-.059-.989-.336-2.373a25.026,25.026,0,0,1-.672-5.4l-.376.059-6.309,1.068s.138,1.681.138,3.283v.04c0,1.385-.376,3.461.1,3.738C800.194,499.625,804.585,498.735,805.258,497.845Z" transform="translate(-777.904 -473.678)" fill="#ffb27d"/>
        <path id="Path_12941" data-name="Path 12941" d="M797.567,491.243s.119,2.373.138,3.976c3.54-.079,5.419-3.521,6.171-5.024Z" transform="translate(-777.907 -473.741)" fill="#e8945b"/>
        <path id="Path_12942" data-name="Path 12942" d="M792.167,482.651s8.268-1.187,7.457-6.309-.3-8.762-5.617-8.228-6.033,2.65-6.171,4.43C787.7,474.344,789.991,482.829,792.167,482.651Z" transform="translate(-772.882 -462.321)" fill="#ffb27d"/>
        <path id="Path_12943" data-name="Path 12943" d="M792.827,467.632s3.224,5.676,6.824,6.013,4.964-.831,4.964-.831a9.945,9.945,0,0,1-4.134-5.281S794.073,464.487,792.827,467.632Z" transform="translate(-775.461 -461.365)" fill="#163560"/>
        <path id="Path_12944" data-name="Path 12944" d="M790.118,469.156a5.173,5.173,0,0,0-2.077,2.215,8.41,8.41,0,0,0-.356,4.905s-2.354-3.817-.811-6.448C788.5,467.06,790.118,469.156,790.118,469.156Z" transform="translate(-772.119 -462.494)" fill="#163560"/>
      </g>
    </g>
  </g>
</svg>
