<svg xmlns="http://www.w3.org/2000/svg" xmlns:xlink="http://www.w3.org/1999/xlink" width="760" height="855" viewBox="0 0 760 855">
  <defs>
    <clipPath id="clip-path">
      <rect id="Rectangle_7359" data-name="Rectangle 7359" width="760" height="855" fill="#fff" stroke="#707070" stroke-width="1"/>
    </clipPath>
    <linearGradient id="linear-gradient" x1="0.192" y1="0.374" x2="1.201" y2="1.159" gradientUnits="objectBoundingBox">
      <stop offset="0" stop-color="#fdb714"/>
      <stop offset="1" stop-color="#ee2e24"/>
    </linearGradient>
  </defs>
  <g id="illustration" clip-path="url(#clip-path)">
    <g id="orange" transform="translate(0 154.07)">
      <g id="Group_24555" data-name="Group 24555" transform="translate(0 0)">
        <g id="Group_24537" data-name="Group 24537" transform="translate(0 19.597)">
          <path id="Path_12857" data-name="Path 12857" d="M860.452,615.007c-47.962,0-696.351-1.392-696.351-1.489-.259-.615-82.3-101.166,21-206.313,51.2-52.1-46.991-119.581,0-177.51,80.519-99.257,160.2-43.366,226.572-71.263,11.715-4.919,23.5-12.848,35.275-25.016a131.769,131.769,0,0,1,21.683-17.994c1.2-.809,2.395-1.586,3.625-2.33a148.4,148.4,0,0,1,14.466-7.864c3.333-1.586,6.732-3.042,10.227-4.369h0a166.643,166.643,0,0,1,16.926-5.5,190.243,190.243,0,0,1,25.243-4.952q5.631-.728,11.359-1.165c74.176-5.566,157.607,25.793,200.682,71.619,8.673,9.223,48.091,56.991,17.023,122.623-19.612,41.457,62.59,81.037,91.813,128.351C934.239,532.126,861.131,613.454,860.452,615.007Z" transform="translate(-132.963 -88.601)" fill="url(#linear-gradient)"/>
          <path id="Path_12858" data-name="Path 12858" d="M890.01,754.146H139.71a.939.939,0,0,1-.939-.939v-.55a.939.939,0,0,1,.939-.939H889.978a.939.939,0,0,1,.938.939v.55A.893.893,0,0,1,890.01,754.146Z" transform="translate(-134.171 -226.542)" fill="#233862"/>
        </g>
        <g id="Group_24554" data-name="Group 24554" transform="translate(177.677)">
          <g id="Group_24539" data-name="Group 24539" transform="translate(265.093 139.735)" opacity="0.8">
            <path id="Path_12859" data-name="Path 12859" d="M874.934,366.818a92.334,92.334,0,0,1-7.249,15.437,94.3,94.3,0,0,1-175.439-41.263,92.672,92.672,0,0,1,.129-14.369,94.679,94.679,0,0,1,14.207-42.363.676.676,0,0,1,.129-.194,94.642,94.642,0,0,1,53.755-40.13c2.3-.647,4.628-1.23,6.99-1.715a94.009,94.009,0,0,1,51.1,3.754c2.265.809,4.466,1.715,6.6,2.686a89.617,89.617,0,0,1,8.77,4.531,93.572,93.572,0,0,1,29.418,27.023h0A93.888,93.888,0,0,1,874.773,302a97.658,97.658,0,0,1,3.657,12.427c.583,2.621,1.036,5.307,1.392,7.994a94.495,94.495,0,0,1-4.887,44.4Z" transform="translate(-692.029 -240.294)" fill="#fef0e8"/>
            <g id="Group_24538" data-name="Group 24538" transform="translate(14.587 1.927)">
              <path id="Path_12860" data-name="Path 12860" d="M774.493,284.507c-5.566,4.3-4.078,15.858-13.722,9.353s-15.7-10.032-18.414-4.369c-2.751,5.7,5.825,8.8,3.56,14.984s-6.829,6.829-11.651,1.748-4.952-9.968-12.783-9.806c-7.8.162-11.165-3.042-10.777-8.932a7.932,7.932,0,0,0-.259-2.718.673.673,0,0,1,.129-.194,94.642,94.642,0,0,1,53.755-40.13c2.3-.647,4.628-1.23,6.99-1.715a12.43,12.43,0,0,1,7.185,7.864c3.4,9.9,8.932,7.573,4.24,15.89s-2.751,10.356,2.362,11.877,11,3.657,10.194,7.7C794.461,290.106,780.059,280.2,774.493,284.507Z" transform="translate(-710.447 -242.727)" fill="#f99850"/>
              <path id="Path_12861" data-name="Path 12861" d="M905.512,386.411a92.334,92.334,0,0,1-7.249,15.437,93.742,93.742,0,0,1-26.343,28.9A10.922,10.922,0,0,1,864.9,428c-9.45-8.447,3.074-17.411,9.644-21.748,6.6-4.369-5.631-5.793-11.812-14.3s8.285-20-1-20.615-20.583-1.23-22.46-11.165,7.864-7.9,6.149-16.279,6.375-9.935,15.016-7.541,9.709-3.981,20.421-1.1,5.664,16.084,17.476,19.353c11.813,3.3,10.324,5.761,10.324,5.761a5.435,5.435,0,0,1,2.2,1.392A91.79,91.79,0,0,1,905.512,386.411Z" transform="translate(-737.193 -261.814)" fill="#f99850"/>
              <path id="Path_12862" data-name="Path 12862" d="M916.5,332.326c-11.23,1.165-10.485-12.848-20.033-12.039-9.612.841-5.5-6.019-10.259-13.075s-20.842-3.236-17.573-10.388,12.233-1.553,16.44-6.7,13.107-.227,13.107-.227a7.2,7.2,0,0,1,1.845.227h0a93.884,93.884,0,0,1,11.424,21.78,97.648,97.648,0,0,1,3.657,12.427C915.66,326.954,916.145,329.64,916.5,332.326Z" transform="translate(-743.263 -252.098)" fill="#f99850"/>
              <path id="Path_12863" data-name="Path 12863" d="M833.488,270.641s7.638-5.4.453-10.421-8.058-2.168-13.981-5.081c-5.955-2.913-10.13,1-7.379,7.929s2.848,18.317,9,14.5C827.7,273.715,828.342,269.379,833.488,270.641Z" transform="translate(-731.513 -245.107)" fill="#f99850"/>
            </g>
          </g>
          <g id="Group_24541" data-name="Group 24541" transform="translate(29.903 237.358)">
            <path id="Path_12864" data-name="Path 12864" d="M611.662,494.654,595.546,686.177S593.863,697.8,602.5,697.8c14.207.032,70.68,0,70.68,0s-10.68-2.427-10.55-7.864c.162-6.408,18.835-197.122,18.835-197.122Z" transform="translate(-436.741 -390.446)" fill="#181919"/>
            <path id="Path_12865" data-name="Path 12865" d="M679.715,693.5c-2.783,0-57.476.1-71.3-.065-6.019-.065-7.087-5.372-7.12-8.77a15.32,15.32,0,0,1,.194-2.848l.421-4.984,1.068-12.686.939-11.2,1.2-14.4,1.036-12.168L617.611,490.29l69.774-1.812s-7.864,79.807-13.431,137.9c-.615,6.473-1.2,12.686-1.748,18.479-.162,1.845-.356,3.657-.518,5.4-.518,5.5-1,10.55-1.392,15.016-.227,2.362-.421,4.531-.583,6.537-.712,7.832-1.133,12.848-1.133,13.786a7.943,7.943,0,0,0,.129,1.553C669.812,693.238,678.648,693.5,679.715,693.5Z" transform="translate(-437.965 -389.545)" fill="#424242"/>
            <path id="Path_12866" data-name="Path 12866" d="M401.93,363.559l39.224,157.575,5.372,21.586,18.285,73.431H804.329L736.95,363.559Z" transform="translate(-396.493 -363.559)" fill="#181919"/>
            <path id="Path_12867" data-name="Path 12867" d="M400.5,363.559l-5.437,1.812,61.1,256.249,7.217-5.469Z" transform="translate(-395.065 -363.559)" fill="#2d2d2d"/>
            <path id="Path_12868" data-name="Path 12868" d="M472.214,687.966H809.629l9.321-5.469H479.431Z" transform="translate(-411.113 -429.904)" fill="#6b6b6b"/>
            <rect id="Rectangle_7360" data-name="Rectangle 7360" width="73.043" height="3.463" transform="translate(252.635 307.449) rotate(180)" fill="#757575"/>
            <path id="Path_12869" data-name="Path 12869" d="M672.48,689.4l-.388,2.654-68.706,13.884.939-11.23.453-5.307Z" transform="translate(-438.399 -431.341)" fill="#757575"/>
            <path id="Path_12870" data-name="Path 12870" d="M679.716,741.642c-2.783,0-57.476.1-71.3-.065-6.02-.065-7.088-5.372-7.12-8.77l68.383-12.88c-.712,7.832-1.133,12.848-1.133,13.786a7.942,7.942,0,0,0,.13,1.553C669.813,741.383,678.648,741.642,679.716,741.642Z" transform="translate(-437.966 -437.691)" fill="#2d2d2d"/>
            <path id="Path_12871" data-name="Path 12871" d="M401.93,363.559H736.95l54.37,202.98H452.481Z" transform="translate(-396.493 -363.559)" fill="#181919"/>
            <path id="Path_12872" data-name="Path 12872" d="M779.173,560.625H465.48l-11.23-44.661-4.337-17.282-1.748-7.055-11.521-45.891-.615-2.395-6.084-24.24-2.718-10.874-2.33-9.256-5.437-21.683H728.622l5.987,21.683,2.557,9.256,2.977,10.874,19.709,71.49h0l1.683,6.052.777,2.816L775.9,548.845Z" transform="translate(-400.14 -366.415)" fill="#fef0e8"/>
            <path id="Path_12873" data-name="Path 12873" d="M734.61,398.973H424.9l-5.437-21.683H728.622Z" transform="translate(-400.14 -366.415)" fill="#f77d48"/>
            <g id="Group_24540" data-name="Group 24540" transform="translate(32.016 17.961)">
              <path id="Path_12874" data-name="Path 12874" d="M435.578,388.957a2.056,2.056,0,0,1,2.039-2.718,3.759,3.759,0,0,1,3.4,2.718,2.056,2.056,0,0,1-2.039,2.719A3.759,3.759,0,0,1,435.578,388.957Z" transform="translate(-435.49 -386.238)" fill="#e9f3fe"/>
              <path id="Path_12875" data-name="Path 12875" d="M446.979,388.957a2.056,2.056,0,0,1,2.039-2.718,3.759,3.759,0,0,1,3.4,2.718,2.056,2.056,0,0,1-2.039,2.719A3.694,3.694,0,0,1,446.979,388.957Z" transform="translate(-437.862 -386.238)" fill="#e9f3fe"/>
              <path id="Path_12876" data-name="Path 12876" d="M459.238,388.957a2.056,2.056,0,0,1,2.039-2.718,3.759,3.759,0,0,1,3.4,2.718,2.056,2.056,0,0,1-2.039,2.719A3.694,3.694,0,0,1,459.238,388.957Z" transform="translate(-440.412 -386.238)" fill="#e9f3fe"/>
            </g>
          </g>
          <path id="Path_12877" data-name="Path 12877" d="M727.369,185.907c12.686-14.887,32.233-44.79,45.405-60.1a4.862,4.862,0,0,0-3.689-8.026H745.136l22.589-51.1a2,2,0,0,0-3.43-2.007l-54.661,73.108a3.034,3.034,0,0,0,2.783,4.822l27.12-3.333-16.117,44.3A2.327,2.327,0,0,0,727.369,185.907Z" transform="translate(-430.472 -63.857)" fill="#f77d48"/>
          <path id="Path_12878" data-name="Path 12878" d="M581.944,307.3c2.848-14.628,4.66-41.813,7.67-56.894a3.711,3.711,0,0,0-5.469-3.948l-15.922,8.965-4.11-42.4a1.533,1.533,0,0,0-3.042-.065l-8.932,69a2.3,2.3,0,0,0,3.657,2.136l16.764-12.363,5.858,35.47A1.792,1.792,0,0,0,581.944,307.3Z" transform="translate(-397.831 -94.6)" fill="#fff"/>
          <g id="Group_24545" data-name="Group 24545" transform="translate(110.095 135.568)">
            <path id="Path_12879" data-name="Path 12879" d="M811.574,538.057l-272.56,22.978a27.267,27.267,0,0,1-27.185-38.318L627.3,264.268a27.282,27.282,0,0,1,47.606-4.013L832,495.727A27.287,27.287,0,0,1,811.574,538.057Z" transform="translate(-499.043 -237.753)" fill="#e6efff"/>
            <g id="Group_24542" data-name="Group 24542">
              <path id="Path_12880" data-name="Path 12880" d="M809.725,545.661l-272.56,22.978a37.625,37.625,0,0,1-37.509-52.849L615.127,257.308a37.644,37.644,0,0,1,65.664-5.534L837.88,487.246a37.671,37.671,0,0,1-28.156,58.415ZM648.04,255.787a16.684,16.684,0,0,0-14.045,9.968L518.524,524.2a16.945,16.945,0,0,0,16.893,23.787l272.56-22.978a16.935,16.935,0,0,0,12.686-26.279L663.574,263.263A16.781,16.781,0,0,0,648.04,255.787Z" transform="translate(-496.32 -235.033)" fill="#ef5216"/>
            </g>
            <g id="Group_24544" data-name="Group 24544" transform="translate(131.364 76.839)">
              <g id="Group_24543" data-name="Group 24543">
                <path id="Path_12881" data-name="Path 12881" d="M676.168,515.972a25.062,25.062,0,0,1,1.068-9.9,22.856,22.856,0,0,1,4.66-8.188,24.58,24.58,0,0,1,7.832-5.793,30.322,30.322,0,0,1,10.712-2.751,31.683,31.683,0,0,1,11.1.906,24.329,24.329,0,0,1,8.77,4.4,22.849,22.849,0,0,1,5.955,7.282,25.253,25.253,0,0,1,2.686,9.579,24.382,24.382,0,0,1-1.068,9.806,23.139,23.139,0,0,1-4.66,8.123,24.85,24.85,0,0,1-7.929,5.825,31.051,31.051,0,0,1-10.809,2.751,30.512,30.512,0,0,1-11.036-.906,24.562,24.562,0,0,1-8.706-4.4,22.961,22.961,0,0,1-5.955-7.217A25.561,25.561,0,0,1,676.168,515.972ZM718.3,466.683l-39.256,3.3L662.187,336.293l50.389-4.24Z" transform="translate(-662.187 -332.054)" fill="#ef5216"/>
              </g>
            </g>
          </g>
          <g id="Group_24549" data-name="Group 24549" transform="translate(0 297.065)">
            <path id="Path_12882" data-name="Path 12882" d="M466.126,510.829a31.137,31.137,0,0,1,1.424-2.848c.55-.906,2.913-3.592,3.333-2.977.388.615,2.007,4.66,1.165,5.793s.065,3.107-4.207,4.3Z" transform="translate(-379.944 -452.671)" fill="#ffb27d"/>
            <path id="Path_12883" data-name="Path 12883" d="M406.425,497.059s21.78,18.188,30.259,16.505c6.634-1.327,17.152-4.66,17.152-4.66s2.783,2.621,1.974,5.793c0,0-13.366,12.589-22.913,12.654-14.887.129-21.91-7.379-21.91-7.379Z" transform="translate(-367.525 -451.037)" fill="#ed7d2b"/>
            <path id="Path_12884" data-name="Path 12884" d="M358.206,738.276s.647,10.194,2.589,10.356c.259.032,10,.032,10,.032l12.427-.065s-.1-3.01-3.722-3.625c-3.625-.647-9.709-3.2-11.91-7.994C365.294,731.9,358.206,738.276,358.206,738.276Z" transform="translate(-357.494 -500.536)" fill="#113c68"/>
            <path id="Path_12885" data-name="Path 12885" d="M357.307,706.965a26.038,26.038,0,0,0,6.731,1.262,24.319,24.319,0,0,0,6.278-.906s.712-6.893,4.628-22.039c2.039-7.961,4.984-18.188,9.159-30.874,11.554-35.114,15.049-55.632,15.372-57.574a.566.566,0,0,0,.032-.162l-.032-.032-35.47-15.567s4.369,48.382-1.2,66.959a81.325,81.325,0,0,0-2.039,8.9C357.243,677.094,357.307,706.965,357.307,706.965Z" transform="translate(-357.307 -468.514)" fill="#2a4e96"/>
            <path id="Path_12886" data-name="Path 12886" d="M376.381,685.282c2.039-7.961,4.984-18.188,9.159-30.874,11.554-35.114,15.049-55.632,15.372-57.574v-.162l-35.47-15.6s4.369,48.382-1.2,66.959C363.435,650.622,376.381,685.282,376.381,685.282Z" transform="translate(-358.743 -468.514)" fill="#233862"/>
            <path id="Path_12887" data-name="Path 12887" d="M393.185,738.276s.647,10.194,2.589,10.356c.259.032,10,.032,10,.032L418.2,748.6s-.1-3.01-3.722-3.625c-3.625-.647-9.709-3.2-11.91-7.994C400.273,731.9,393.185,738.276,393.185,738.276Z" transform="translate(-364.771 -500.536)" fill="#15447c"/>
            <path id="Path_12888" data-name="Path 12888" d="M408.691,582.5a507.208,507.208,0,0,1-4.951,69.839c-5.437,38.512-3.592,54.823-3.592,54.823a37.692,37.692,0,0,1-5.243,1.327,23.4,23.4,0,0,1-7.767-.906s-7.767-38.512-5.534-57.768S370.956,583.7,370.956,583.7Z" transform="translate(-360.146 -468.811)" fill="#2a4e96"/>
            <path id="Path_12889" data-name="Path 12889" d="M386.851,485.8l6.926,4.531,6.311-1.78c1.165-1.65,1.456-4.822,1.489-7.573a41.656,41.656,0,0,0-.259-5.049l-9.353-4.11-3.5-1.521c0,.065.259,2.848.324,3.269A23.907,23.907,0,0,1,386.851,485.8Z" transform="translate(-363.453 -445.469)" fill="#ffb27d"/>
            <path id="Path_12890" data-name="Path 12890" d="M407.327,571.29c-8.608,8.317-41.23,6.926-43.237-2.233s2.2-78.059,16.926-82.363c3.042-.906,19.385,4.369,19.385,4.369a103.91,103.91,0,0,1,4.24,15.243c.324,1.651,1.262,19.256,2.007,35.729.324,7.7.615,15.146.744,20.615C407.489,567.73,407.489,571.1,407.327,571.29Z" transform="translate(-358.621 -448.859)" fill="#f99746"/>
            <path id="Path_12891" data-name="Path 12891" d="M390.092,474.092c1.909,3.2,8.544,6.019,12.071,7.282a41.656,41.656,0,0,0-.259-5.049l-9.353-4.11C390.513,472.214,389.25,472.668,390.092,474.092Z" transform="translate(-364.072 -445.869)" fill="#fca56b"/>
            <path id="Path_12892" data-name="Path 12892" d="M404.016,470.2s-15.049,4.693-17.832-4.725-6.6-15.146,2.913-18.544c9.482-3.4,12.427-.356,14.11,2.557C404.89,452.437,407.868,468.748,404.016,470.2Z" transform="translate(-362.657 -440.298)" fill="#ffb27d"/>
            <path id="Path_12893" data-name="Path 12893" d="M400.9,447.236s-.971,10.971-3.236,10.486-4.757-1.489-4.434,1.812-2.2,8.964-5.469,8.964c-7.023-.032-14.628-18.026-12.719-21.424C380.612,437.236,408.9,435.229,400.9,447.236Z" transform="translate(-360.935 -438.949)" fill="#163560"/>
            <path id="Path_12894" data-name="Path 12894" d="M400.916,485.752c-.194-.1-11.2-5.016-12.492-4.6s-2.88,4.369-2.88,4.369l19.385,4.369S403.408,486.82,400.916,485.752Z" transform="translate(-363.181 -447.724)" fill="#ed7d2b"/>
            <g id="Group_24547" data-name="Group 24547" transform="translate(38.799 6.982)">
              <path id="Path_12895" data-name="Path 12895" d="M473.819,552.805,412.1,610.929c-1.2,1.133-2.751,1.489-3.4.809l-2.071-2.2c-.647-.68-.194-2.2,1-3.333l61.716-58.124c1.2-1.133,2.751-1.489,3.4-.809l2.071,2.2C475.469,550.152,475.016,551.64,473.819,552.805Z" transform="translate(-406.306 -468.393)" fill="#1f4d84"/>
              <path id="Path_12896" data-name="Path 12896" d="M439.149,594.258l-27.088,25.5c-1.2,1.133-2.751,1.489-3.4.809l-2.071-2.2c-.647-.68-.194-2.2,1-3.333l27.088-25.5Z" transform="translate(-406.297 -477.256)" fill="#739af0"/>
              <path id="Path_12897" data-name="Path 12897" d="M473.052,510.236a48.376,48.376,0,1,0,80.2-48.577c-.259-.259-.518-.485-.744-.744a48.388,48.388,0,0,0-79.451,49.321Zm13.819-44.661a44.519,44.519,0,0,1,40.1-13.366,44.027,44.027,0,0,1,22.881,11.456,44.553,44.553,0,1,1-62.978,1.909Z" transform="translate(-419.747 -447.765)" fill="#1f4d84"/>
              <g id="Group_24546" data-name="Group 24546" transform="translate(55.045 3.791)" opacity="0.5">
                <path id="Path_12898" data-name="Path 12898" d="M552.8,527.64a44.566,44.566,0,1,1-1.909-62.978A44.351,44.351,0,0,1,552.8,527.64Z" transform="translate(-475.8 -452.552)" fill="#b3cff9"/>
              </g>
            </g>
            <path id="Path_12899" data-name="Path 12899" d="M410.638,567.727c-34.013-24.24-31.2-56.57-31.2-56.57,12.427,7.023,24.758,22.525,30.421,35.955C410.217,554.815,410.509,562.29,410.638,567.727Z" transform="translate(-361.9 -453.97)" fill="#ed7d2b"/>
            <g id="Group_24548" data-name="Group 24548" transform="translate(16.864 42.171)">
              <path id="Path_12900" data-name="Path 12900" d="M460.151,567.946a9.116,9.116,0,0,0,4.337-2.686s1.036.065-.162,2.265l-.485.971a.2.2,0,0,0,.162.291c1.392.1,2.783-.453,5.437.129.356.065.485.971.453,1.327a3.4,3.4,0,0,1-.712,2.33c-.421.583-1.618,1.165-4.3,2.265-1,.421-3.916.1-6.634-.841l-2.168-1,.68-4.045.55.129C458.177,569.24,459.245,568.172,460.151,567.946Z" transform="translate(-394.717 -507.395)" fill="#ffb27d"/>
              <path id="Path_12901" data-name="Path 12901" d="M389.86,492.2s-30.551,5.825,9,50.065c6.311,7.087,40.486,16.279,40.486,16.279s3.463-2.945,1.715-5.34c0,0-23.528-17.088-28.706-19.806-2.33-1.23-9.029-27.282-12.848-33.56A17.214,17.214,0,0,0,389.86,492.2Z" transform="translate(-378.601 -492.197)" fill="#f99746"/>
            </g>
            <path id="Path_12902" data-name="Path 12902" d="M467.188,511.124a15.485,15.485,0,0,0,1.2-2.913,16.2,16.2,0,0,1,1.974-4.466c.194-.194.906.065.971.939a5.5,5.5,0,0,1-.485,1.942c-.55,1.359-.453,3.236-.647,3.851C469.713,512,467.188,511.124,467.188,511.124Z" transform="translate(-380.165 -452.415)" fill="#ffb27d"/>
          </g>
          <g id="Group_24551" data-name="Group 24551" transform="translate(51.469 135.093)">
            <g id="Group_24550" data-name="Group 24550">
              <path id="Path_12903" data-name="Path 12903" d="M482.388,412.983a1.842,1.842,0,0,0-.324,1.974h0c.485,1.327,2.039,2.783,3.884,4.24.227.194.453.356.615.518l.129.129.1.1c1.715,1.553,1.068,1.942,4.11,5.113,3.5,3.625,5.89,3.689,6.57,3.366.583-.291-.583-2.2-1.909-4.369a2.838,2.838,0,0,1-.194-.324c-.162-.291-.356-.583-.518-.874-1.521-2.589-1.133-3.819-.777-7.7.291-3.139,4.887-17.573,4.887-17.573l-6.667-1.165s-2.007,11.489-4.24,13.269c-1.2.939-2.524.939-3.657,1.651-.065.065-.162.1-.227.162A12.4,12.4,0,0,0,482.388,412.983Z" transform="translate(-434.698 -268.128)" fill="#ffb27d"/>
              <path id="Path_12904" data-name="Path 12904" d="M482.388,416.944a1.842,1.842,0,0,0-.324,1.974h0a13.812,13.812,0,0,0,3.884,4.24c.227.194.421.356.615.518l.129.13.1.1c1.715,1.553,1.068,1.942,4.11,5.113,3.5,3.625,5.89,3.689,6.57,3.366.583-.291-.583-2.2-1.909-4.369a14.878,14.878,0,0,1-6.214-4.6c-2.007-2.589-3.4-5.858-4.757-7.9-.162-.032-.227-.032-.388-.065A11.059,11.059,0,0,0,482.388,416.944Z" transform="translate(-434.698 -272.089)" fill="#233862"/>
              <path id="Path_12905" data-name="Path 12905" d="M549.155,408.29c.421,2.071,3.366,1.715,6.634.906s2.492.162,7.185-.356c4.66-.518,6.084-2.265,6.246-2.945.129-.615-2.168-.841-4.66-1.133-.324-.032-.615-.065-.939-.1-2.783-.356-4.854-2.168-7.379-3.625-2.395-1.392-5.987-7.12-5.987-7.12l-6.408.518s3.366,5.113,4.66,7.346a7.622,7.622,0,0,1,.615,4.369A6.772,6.772,0,0,0,549.155,408.29Z" transform="translate(-447.58 -267.61)" fill="#ffb27d"/>
              <path id="Path_12906" data-name="Path 12906" d="M557.161,412.084c3.269-.809,2.492.162,7.185-.356,4.66-.518,6.084-2.265,6.246-2.945.129-.615-2.168-.841-4.66-1.133l-.032.032a13.33,13.33,0,0,1-6.7,2.071c-3.172.065-6.537-.841-8.706-.809a7.2,7.2,0,0,0,.065,2.2C550.947,413.217,553.892,412.893,557.161,412.084Z" transform="translate(-448.952 -270.466)" fill="#233862"/>
              <path id="Path_12907" data-name="Path 12907" d="M513.762,357.63l-5.987,16.117-7.832,21.036a12.781,12.781,0,0,1-4.142-.388,18.462,18.462,0,0,1-4.013-1.942s2.168-22.589,6.246-35.567c1.036-3.333,2.2-6.019,3.5-7.541C507.775,341.9,513.762,357.63,513.762,357.63Z" transform="translate(-436.751 -257.921)" fill="#233862"/>
              <path id="Path_12908" data-name="Path 12908" d="M496.621,327.118c-3.4-1.1-12.3-.032-21.974,1.715a6.6,6.6,0,0,1-6.764-3.042h0l-24.3-1.909s-8.026,17.767-3.625,29.094a4.3,4.3,0,0,0,4.24,2.751h0s14.693.032,19.385.032c12.071,0,25.567-8.285,27.314-8.641,2.848-.583,3.981,5.146,6.861,11.133,2.848,5.987,26.829,26.57,26.829,26.57a21.937,21.937,0,0,0,5.21-.518,4.941,4.941,0,0,0,2.233-1.424S505.489,330,496.621,327.118Z" transform="translate(-425.694 -253.04)" fill="#2a4e96"/>
              <path id="Path_12909" data-name="Path 12909" d="M461.99,235.856a8.629,8.629,0,0,0-4.628-1.2,12.929,12.929,0,0,1-2.233-.129c-9.256-1.359-14.855,12.1-15.178,16.181-.615,7.476-4.563,8.609-10.13,13.3-11.165,9.385-7.9,20.292-1.78,24.337,3.657,2.427,10.1,0,10.1,0,.1.065,17.638-9.806,26.311-14.563C477.394,271.908,467.2,238.963,461.99,235.856Z" transform="translate(-422.325 -234.433)" fill="#233862"/>
              <path id="Path_12910" data-name="Path 12910" d="M463.186,275.362c.032.032-4.272,1.489-7.12.227-2.686-1.2-4.757-5.631-4.693-5.631,1.23-.065,2.589-1.133,3.625-8.188l.518.194,8.8,3.172s-.647,2.816-1.036,5.5C462.9,272.87,462.7,275.038,463.186,275.362Z" transform="translate(-428.344 -240.12)" fill="#ffb27d"/>
              <path id="Path_12911" data-name="Path 12911" d="M465.367,265.145s-.356,1.521-.874,4.369a9.911,9.911,0,0,1-7.929-7.541Z" transform="translate(-429.424 -240.162)" fill="#ed975d"/>
              <path id="Path_12912" data-name="Path 12912" d="M466.429,263.974s-12.039-1.618-10.906-9.094.324-12.719,8.058-12.007,8.8,3.786,9.029,6.375S469.6,264.2,466.429,263.974Z" transform="translate(-429.192 -236.176)" fill="#ffb27d"/>
              <path id="Path_12913" data-name="Path 12913" d="M471.291,244.962s-7.7,6.634-12.945,7.185c-5.243.518-7.217-1.165-7.217-1.165a20.634,20.634,0,0,0,4.952-6.7,3.645,3.645,0,0,1,3.042-2.168C462.844,241.79,469.932,241.661,471.291,244.962Z" transform="translate(-428.293 -235.999)" fill="#233862"/>
              <path id="Path_12914" data-name="Path 12914" d="M470.5,244.637a18.881,18.881,0,0,1,3.4,4.337,14.691,14.691,0,0,1,.388,7.735s4.013-7.8,1.748-11.618C473.605,241.109,470.5,244.637,470.5,244.637Z" transform="translate(-432.322 -236.256)" fill="#233862"/>
              <path id="Path_12915" data-name="Path 12915" d="M470.594,295.161c-.388,24.369-.1,19.288-2.783,21.586-.647.55-2.46.874-4.822,1.036-7.476.485-20.615-.744-21.1-2.136-1.715-4.79-.518-6.278-1.942-13.592-.162-.777-.324-1.618-.55-2.524-1.2-5.016-2.362-6.731,1.877-14.79,3.851-7.314,7.864-13.236,8.22-13.042,10.162,6.052,11,.971,11,.971S470.756,283.284,470.594,295.161Z" transform="translate(-425.622 -242.184)" fill="#f99746"/>
              <path id="Path_12916" data-name="Path 12916" d="M507.775,376.252l-7.832,21.036a12.781,12.781,0,0,1-4.142-.388,18.462,18.462,0,0,1-4.013-1.942s2.168-22.589,6.246-35.567Z" transform="translate(-436.751 -260.427)" fill="#2a4e96"/>
              <path id="Path_12917" data-name="Path 12917" d="M466.371,272.966s10.486,1.78,11.683,6.278c1.23,4.5,5.275,31.877,5.275,31.877s-2.945,2.88-5.4.421-7.735-25.6-7.735-25.6Z" transform="translate(-431.464 -242.449)" fill="#f99746"/>
              <path id="Path_12918" data-name="Path 12918" d="M463.424,323.088c-7.476.485-20.615-.744-21.1-2.136-1.715-4.79-.518-6.278-1.942-13.592l3.592-10.162s-.615,11.295,2.718,14.272,13.657,5.728,15.275,8.22A9.714,9.714,0,0,1,463.424,323.088Z" transform="translate(-426.058 -247.489)" fill="#ed7d2b"/>
              <path id="Path_12919" data-name="Path 12919" d="M458.689,323.583s7.379-1.65,8.576-.971c1.2.647,4.11,3.042,4.466,3.851.356.841-2.654-.615-3.625-.906a9.322,9.322,0,0,0-3.139.68,10.185,10.185,0,0,1-5.6.55Z" transform="translate(-429.866 -252.742)" fill="#ffb27d"/>
              <path id="Path_12920" data-name="Path 12920" d="M446.2,271.74s-9.9.615-13.333,5.372c-4.822,6.731-14.4,35.4-8.932,39.224,6.181,4.3,28.091,1.133,28.091,1.133s.744-3.4-.291-5.049c-1-1.651-17.508-4.337-18.285-5.081-.777-.777,9.515-14.855,9.515-17.12C443,287.921,446.2,271.74,446.2,271.74Z" transform="translate(-422.295 -242.194)" fill="#f99746"/>
              <path id="Path_12921" data-name="Path 12921" d="M469.926,325.23a14.63,14.63,0,0,0,2.039,2.233,1.86,1.86,0,0,0,.841.194l-1.036-1.877Z" transform="translate(-432.203 -253.321)" fill="#ffb27d"/>
              <path id="Path_12922" data-name="Path 12922" d="M469.477,322.655l4.5,2.168a.786.786,0,0,1-.744.291,10.988,10.988,0,0,1-1.942-.55Z" transform="translate(-432.11 -252.785)" fill="#ffb27d"/>
            </g>
            <path id="Path_12923" data-name="Path 12923" d="M505.583,329.144l-46.894-.032v1.036l46.473.032Z" transform="translate(-429.866 -254.128)" fill="#233862"/>
            <path id="Path_12924" data-name="Path 12924" d="M472.5,323.449l35.534.032,10.712-26.57h-35.47Z" transform="translate(-432.739 -247.43)" fill="#233862"/>
            <path id="Path_12925" data-name="Path 12925" d="M505.148,313.223a1.22,1.22,0,0,0-1.2-1.683,2.385,2.385,0,0,0-2.168,1.683,1.22,1.22,0,0,0,1.2,1.683A2.385,2.385,0,0,0,505.148,313.223Z" transform="translate(-438.816 -250.473)" fill="#fff"/>
          </g>
          <g id="Group_24553" data-name="Group 24553" transform="translate(316.509 310.73)">
            <path id="Path_12926" data-name="Path 12926" d="M803.817,456.812a10.176,10.176,0,0,0-8.091.421c-13.787.55-14.3,14.693-12.686,19.935,2.265,7.379-5.761,13.2,3.139,16.181,10.356,3.463,19.029-.647,18.414,1.133C837.345,497.072,814.723,460.4,803.817,456.812Z" transform="translate(-762.133 -456.202)" fill="#163560"/>
            <path id="Path_12927" data-name="Path 12927" d="M786.21,536a34.684,34.684,0,0,1-3.689,5.566c-2.848,3.592-17.9-4.919-16.6-5.566s8.835-22.4,10.647-25.114,7.929-4.142,7.929-4.142Z" transform="translate(-758.798 -466.716)" fill="#f99746"/>
            <path id="Path_12928" data-name="Path 12928" d="M851.613,728.408s4.143,3.786,3.333,6.473-4.563,4.466-5.049,7.767c-.518,3.3-2.524,5.081-4.337,5.081h-8.673s-1.327-2.3,1.909-3.01,4.466-4.563,4.24-8.155a65.4,65.4,0,0,1,.291-8.35l6.861-1.586Z" transform="translate(-773.522 -512.456)" fill="#1f447f"/>
            <path id="Path_12929" data-name="Path 12929" d="M805.051,730.919s1.489,16.02-.324,16.926l-23.3-.032s0-2.686,3.754-3.3c3.754-.583,10.324-2.783,11.424-7.67S805.051,730.919,805.051,730.919Z" transform="translate(-762.041 -513.348)" fill="#1c3154"/>
            <path id="Path_12930" data-name="Path 12930" d="M822.8,524.859a90.578,90.578,0,0,1,0,10.777c-.227,3.884-4.175,9.094-4.725,10.388-1.392,3.236-2.977,3.754-2.977,3.754l-12.233,3.01-4.3,1.068L785,549.811s-6.181-17.249-3.689-26.958a74.828,74.828,0,0,1,6.278-16.44s9.223-2.071,25.47-.906Z" transform="translate(-761.894 -466.384)" fill="#f99746"/>
            <path id="Path_12931" data-name="Path 12931" d="M829.2,541.036c-.227,3.884-5.34,8.964-5.89,10.259-1.392,3.236-2.977,3.754-2.977,3.754l-12.233,3.01-2.2-6.343s17.864-4.693,14.984-21.23Z" transform="translate(-767.132 -471.654)" fill="#ed7d2b"/>
            <path id="Path_12932" data-name="Path 12932" d="M785.347,564.81s-6.731,20.906-7.152,28.026,12.848,101.1,13.366,104.4c.518,3.107,4.337,5.049,4.337,5.049a5.818,5.818,0,0,0,4.272.324c3.5-.971,4.6-2.168,4.6-2.168s5.243-67.023,2.006-90.972A378.421,378.421,0,0,1,803.5,564.81Z" transform="translate(-761.367 -478.795)" fill="#233862"/>
            <path id="Path_12933" data-name="Path 12933" d="M816.255,564.034s10.259,13.754,11.2,23.042c.971,9.288,1.489,41.942,3.527,51s9.515,26.505,9.515,54.758a5.675,5.675,0,0,1-3.172,2.492,22.546,22.546,0,0,1-2.783.777,4.413,4.413,0,0,1-4.919-2.33c-5.049-10.162-21.165-43.01-21.974-49.806-.583-4.822-5.664-36.732-16.764-55.47-2.654-4.5,1.618-22.363,1.618-22.363Z" transform="translate(-763.827 -478.633)" fill="#2a4e96"/>
            <path id="Path_12934" data-name="Path 12934" d="M785.777,560.724s2.686,2.136,8.058,2.233c6.408.129,22.266-1.618,22.266-1.618a12.972,12.972,0,0,1,.68,4.045s-19.353,4.887-30.583.712A6.792,6.792,0,0,1,785.777,560.724Z" transform="translate(-762.865 -477.945)" fill="#233862"/>
            <g id="Group_24552" data-name="Group 24552" transform="translate(26.505 83.944)">
              <path id="Path_12935" data-name="Path 12935" d="M793.328,568.8a3.327,3.327,0,1,1,2.913-3.3A3.126,3.126,0,0,1,793.328,568.8Zm0-5.631a2.369,2.369,0,1,0,1.942,2.33A2.139,2.139,0,0,0,793.328,563.166Z" transform="translate(-790.416 -562.195)" fill="#fff"/>
            </g>
            <path id="Path_12936" data-name="Path 12936" d="M800.347,569.291l-29.094.259-14.3-33.657,29.094-.259Z" transform="translate(-756.949 -472.725)" fill="#b5453c"/>
            <path id="Path_12937" data-name="Path 12937" d="M803.053,557.524l-2.136-2.621a7.736,7.736,0,0,0-2.492-1.521c-1.036-.227-3.269-1.489-3.463-1.133-.227.356,1.715,2.913,1.715,2.913h.1c-2.2,1.651-7.735.194-8.414.874-.841.809,1.133,2.589,2.2,3.56s4.078,2.654,6.44,1.909c1.715-.55,4.434-1.068,4.434-1.068Z" transform="translate(-763.441 -476.169)" fill="#ffb27d"/>
            <path id="Path_12938" data-name="Path 12938" d="M759.638,543.086s1.845-2.071,2.977-1.068c1.165,1-.291,5.89-1.424,5.4S759.024,543.7,759.638,543.086Z" transform="translate(-757.47 -473.996)" fill="#ffb27d"/>
            <path id="Path_12939" data-name="Path 12939" d="M817.677,505.559s8.317.906,14.3,11.78c4.725,8.576,12.783,24.369,9.741,28.8-1.327,1.974-14.143,8.932-38.8,4.951,0,0,.388-3.107,2.395-4.563,0,0,20.777-6.667,20.745-7.994-.065-2.524-2.815-4.693-14.4-16.279C808.454,519.086,817.677,505.559,817.677,505.559Z" transform="translate(-766.512 -466.469)" fill="#f99746"/>
            <path id="Path_12940" data-name="Path 12940" d="M810.155,502.79c.291-.388-.1-1.618-.55-3.884a40.945,40.945,0,0,1-1.1-8.835l-.615.1-10.324,1.748s.227,2.751.227,5.372v.065c0,2.265-.615,5.664.162,6.117C801.87,505.7,809.054,504.247,810.155,502.79Z" transform="translate(-765.397 -463.248)" fill="#ffb27d"/>
            <path id="Path_12941" data-name="Path 12941" d="M797.567,491.91s.194,3.884.227,6.5c5.793-.129,8.867-5.761,10.1-8.22Z" transform="translate(-765.398 -463.273)" fill="#e8945b"/>
            <path id="Path_12942" data-name="Path 12942" d="M794.926,491.933s13.528-1.942,12.2-10.324-.485-14.337-9.191-13.463-9.871,4.337-10.1,7.249C787.612,478.341,791.366,492.225,794.926,491.933Z" transform="translate(-763.373 -458.669)" fill="#ffb27d"/>
            <path id="Path_12943" data-name="Path 12943" d="M792.827,468.538s5.275,9.288,11.165,9.838,8.123-1.359,8.123-1.359a16.272,16.272,0,0,1-6.764-8.641S794.866,463.392,792.827,468.538Z" transform="translate(-764.412 -458.284)" fill="#163560"/>
            <path id="Path_12944" data-name="Path 12944" d="M792.515,469.64a8.464,8.464,0,0,0-3.4,3.625,13.76,13.76,0,0,0-.583,8.026s-3.851-6.246-1.327-10.55C789.861,466.21,792.515,469.64,792.515,469.64Z" transform="translate(-763.065 -458.739)" fill="#163560"/>
          </g>
        </g>
      </g>
    </g>
  </g>
</svg>
